<?xml version="1.0" standalone="no"?><!DOCTYPE svg PUBLIC "-//W3C//DTD SVG 1.1//EN" "http://www.w3.org/Graphics/SVG/1.1/DTD/svg11.dtd"><svg t="1653998073097" class="icon" viewBox="0 0 1024 1024" version="1.1" xmlns="http://www.w3.org/2000/svg" p-id="8534" xmlns:xlink="http://www.w3.org/1999/xlink" width="200" height="200"><defs><style type="text/css"></style></defs><path d="M156.444444 301.511111h416.711112v-56.888889H156.444444c-15.644444 0-28.444444 12.8-28.444444 28.444445s12.8 28.444444 28.444444 28.444444zM867.555556 244.622222H715.377778V170.666667c0-15.644444-12.8-28.444444-28.444445-28.444445s-28.444444 12.8-28.444444 28.444445v199.111111c0 15.644444 12.8 28.444444 28.444444 28.444444s28.444444-12.8 28.444445-28.444444v-68.266667H867.555556c15.644444 0 28.444444-12.8 28.444444-28.444444s-12.8-28.444444-28.444444-28.444445zM156.444444 543.288889h132.266667v-56.888889H156.444444c-15.644444 0-28.444444 12.8-28.444444 28.444444s12.8 28.444444 28.444444 28.444445zM867.555556 486.4H430.933333V412.444444c0-15.644444-12.8-28.444444-28.444444-28.444444s-28.444444 12.8-28.444445 28.444444v199.111112c0 15.644444 12.8 28.444444 28.444445 28.444444s28.444444-12.8 28.444444-28.444444v-68.266667H867.555556c15.644444 0 28.444444-12.8 28.444444-28.444445s-12.8-28.444444-28.444444-28.444444zM156.444444 785.066667h274.488889v-56.888889H156.444444c-15.644444 0-28.444444 12.8-28.444444 28.444444s12.8 28.444444 28.444444 28.444445zM867.555556 728.177778H573.155556V654.222222c0-15.644444-12.8-28.444444-28.444445-28.444444s-28.444444 12.8-28.444444 28.444444v199.111111c0 15.644444 12.8 28.444444 28.444444 28.444445s28.444444-12.8 28.444445-28.444445v-68.266666H867.555556c15.644444 0 28.444444-12.8 28.444444-28.444445s-12.8-28.444444-28.444444-28.444444z" p-id="8535" fill="#ffffff"></path></svg>