<?xml version="1.0" standalone="no"?><!DOCTYPE svg PUBLIC "-//W3C//DTD SVG 1.1//EN" "http://www.w3.org/Graphics/SVG/1.1/DTD/svg11.dtd"><svg t="1647917543769" class="icon" viewBox="0 0 1025 1024" version="1.1" xmlns="http://www.w3.org/2000/svg" p-id="22524" xmlns:xlink="http://www.w3.org/1999/xlink" width="200.1953125" height="200"><path d="M25.609018 972.8c-11.52 0-21.6064-7.68-24.6784-18.7904s1.6384-22.8864 11.52-28.7744c86.5792-51.9168 122.4704-127.4368 135.2192-162.7648-94.1056-72.0384-147.6608-171.7248-147.6608-276.0704 0-52.6848 13.2096-103.7312 39.3216-151.7568 24.8832-45.7728 60.416-86.784 105.5232-121.9072 91.4944-71.168 212.7872-110.3872 341.5552-110.3872s250.0608 39.2192 341.5552 110.3872c45.1072 35.072 80.64 76.0832 105.5232 121.9072 26.112 47.9744 39.3216 99.0208 39.3216 151.7568s-13.2096 103.7312-39.3216 151.7568c-24.8832 45.7728-60.416 86.784-105.5232 121.9072-91.4944 71.168-212.7872 110.3872-341.5552 110.3872-52.8896 0-104.8064-6.6048-154.4192-19.712-21.9648 14.6432-63.0272 40.6016-112.0768 65.024-76.1856 37.888-141.5168 57.088-194.2528 57.088zM486.409018 153.6c-239.9744 0-435.2 149.2992-435.2 332.8 0 92.928 51.456 182.3744 141.1072 245.3504 8.8064 6.1952 12.8 17.2032 10.0352 27.5968-5.9904 22.3232-26.368 83.6096-80.896 142.7456 66.6624-23.3472 138.4448-63.8464 191.4368-100.3008 6.2976-4.352 14.1824-5.632 21.5552-3.5328 48.5376 13.8752 99.6864 20.9408 151.9616 20.9408 239.9744 0 435.2-149.2992 435.2-332.8s-195.2256-332.8-435.2-332.8z" p-id="22525"></path></svg>